<svg xmlns="http://www.w3.org/2000/svg" viewBox="0 0 350.93 38.27"><defs><style>.cls-1{fill:#fff;}.cls-2{fill:#ffb500;}.cls-3{fill:#797574;}</style></defs><g id="Layer_2" data-name="Layer 2"><g id="Layer_1-2" data-name="Layer 1"><path class="cls-1" d="M89.19.3V25.71H85V23.64a6.42,6.42,0,0,1-5.39,2.48c-4.74,0-8.13-3.73-8.13-8.78s3.39-8.77,8.13-8.77a6.58,6.58,0,0,1,5,2V.3Zm-4.51,17c0-3.18-2.13-4.64-4.23-4.64a4.31,4.31,0,0,0-4.34,4.61A4.32,4.32,0,0,0,80.45,22C82.55,22,84.68,20.56,84.68,17.34Z"/><path class="cls-1" d="M92.71,2.85a2.93,2.93,0,0,1,5.86,0,2.86,2.86,0,0,1-2.95,2.81A2.83,2.83,0,0,1,92.71,2.85Zm.64,6.09h4.58V25.71H93.35Z"/><path class="cls-1" d="M100.54,22.87l2.3-2.78a6.56,6.56,0,0,0,4.71,2.27c1.15,0,2.13-.44,2.13-1.39,0-.78-.71-1.09-1.72-1.53l-1.8-.74c-2.85-1.15-4.57-2.47-4.57-5.12,0-3.21,2.6-5,6.16-5a7.75,7.75,0,0,1,6,2.51l-2.3,2.81a5.53,5.53,0,0,0-3.76-1.59c-1.09,0-1.8.37-1.8,1.18,0,.65.54,1,1.76,1.49l1.63.68c3,1.22,4.71,2.51,4.71,5.12,0,3.45-2.88,5.35-6.54,5.35A8.57,8.57,0,0,1,100.54,22.87Z"/><path class="cls-1" d="M133,15.31v10.4h-4.54V16a3,3,0,0,0-3.12-3.26A3.08,3.08,0,0,0,122.18,16v9.75H117.6V.3h4.58V10.37a6.38,6.38,0,0,1,4.6-1.8C130.61,8.57,133,11.28,133,15.31Z"/><path class="cls-1" d="M159.78.3V25.71h-4.2V23.64a6.4,6.4,0,0,1-5.39,2.48c-4.74,0-8.13-3.73-8.13-8.78s3.39-8.77,8.13-8.77a6.61,6.61,0,0,1,5,2V.3Zm-4.51,17c0-3.18-2.13-4.64-4.23-4.64a4.31,4.31,0,0,0-4.34,4.61A4.32,4.32,0,0,0,151,22C153.14,22,155.27,20.56,155.27,17.34Z"/><path class="cls-1" d="M178.89,18.87H167.13c.54,2.13,2.27,3.32,4.71,3.32a7.37,7.37,0,0,0,4.67-1.7l1.9,3.12a10.23,10.23,0,0,1-6.71,2.51c-5.31,0-9.18-3.83-9.18-8.78a8.65,8.65,0,0,1,8.78-8.77,7.61,7.61,0,0,1,7.89,7.79A12.21,12.21,0,0,1,178.89,18.87Zm-11.76-3.22h7.62a3.41,3.41,0,0,0-3.62-3.39A4.1,4.1,0,0,0,167.13,15.65Z"/><path class="cls-1" d="M181.18,22.87l2.3-2.78a6.56,6.56,0,0,0,4.71,2.27c1.15,0,2.13-.44,2.13-1.39,0-.78-.71-1.09-1.72-1.53l-1.8-.74c-2.85-1.15-4.57-2.47-4.57-5.12,0-3.21,2.6-5,6.16-5a7.75,7.75,0,0,1,6,2.51l-2.3,2.81a5.53,5.53,0,0,0-3.76-1.59c-1.09,0-1.8.37-1.8,1.18,0,.65.54,1,1.76,1.49l1.63.68c3,1.22,4.71,2.51,4.71,5.12,0,3.45-2.88,5.35-6.54,5.35A8.57,8.57,0,0,1,181.18,22.87Z"/><path class="cls-1" d="M197.53,2.85a2.93,2.93,0,0,1,5.86,0,2.86,2.86,0,0,1-2.95,2.81A2.83,2.83,0,0,1,197.53,2.85Zm.64,6.09h4.58V25.71h-4.58Z"/><path class="cls-1" d="M224,8.94V23.85c0,5.65-3.63,8.36-8.68,8.36a12,12,0,0,1-8.23-3.11l2.41-3.19a8.53,8.53,0,0,0,5.45,2.17c2.57,0,4.47-1.25,4.47-4V23.2a6.72,6.72,0,0,1-5.11,2c-4.61,0-8-3.35-8-8.33s3.45-8.3,8-8.3A6.57,6.57,0,0,1,219.79,11V8.94Zm-4.51,7.86a4,4,0,0,0-4.23-4.33,4.15,4.15,0,0,0-4.34,4.37,4.28,4.28,0,0,0,4.34,4.5A4.17,4.17,0,0,0,219.48,16.8Z"/><path class="cls-1" d="M244,15.31v10.4h-4.54V15.92a3,3,0,0,0-3.11-3.25,3.08,3.08,0,0,0-3.19,3.25v9.79h-4.57V8.94h4.2v1.53a6.82,6.82,0,0,1,4.91-1.9C241.6,8.57,244,11.28,244,15.31Z"/><path class="cls-2" d="M271.58.3V25.71h-4.2V23.64A6.4,6.4,0,0,1,262,26.12c-4.75,0-8.13-3.73-8.13-8.78s3.38-8.77,8.13-8.77a6.61,6.61,0,0,1,5,2V.3Zm-4.5,17c0-3.18-2.14-4.64-4.24-4.64a4.31,4.31,0,0,0-4.33,4.61A4.32,4.32,0,0,0,262.84,22C264.94,22,267.08,20.56,267.08,17.34Z"/><path class="cls-2" d="M274.36,2.85a2.93,2.93,0,0,1,5.86,0,2.86,2.86,0,0,1-3,2.81A2.83,2.83,0,0,1,274.36,2.85ZM275,8.94h4.58V25.71H275Z"/><path class="cls-2" d="M300.81,8.94V23.85c0,5.65-3.62,8.36-8.67,8.36a12,12,0,0,1-8.23-3.11l2.4-3.19a8.56,8.56,0,0,0,5.46,2.17c2.57,0,4.47-1.25,4.47-4V23.2a6.73,6.73,0,0,1-5.12,2c-4.6,0-8-3.35-8-8.33s3.45-8.3,8-8.3A6.56,6.56,0,0,1,296.61,11V8.94Zm-4.5,7.86a4,4,0,0,0-4.24-4.33,4.14,4.14,0,0,0-4.33,4.37,4.28,4.28,0,0,0,4.33,4.5A4.17,4.17,0,0,0,296.31,16.8Z"/><path class="cls-2" d="M304.78,2.85A2.83,2.83,0,0,1,307.69,0a2.87,2.87,0,0,1,2.95,2.85,2.86,2.86,0,0,1-2.95,2.81A2.82,2.82,0,0,1,304.78,2.85Zm.64,6.09H310V25.71h-4.57Z"/><path class="cls-2" d="M325.25,21.88v3.83a12.53,12.53,0,0,1-3.15.41c-4.13,0-6.71-2-6.71-6.3v-7h-2.64V8.94h2.64V4.71H320V8.94h4.74V12.8H320v6.61c0,1.93,1,2.61,3.11,2.61C323.63,22,324.37,22,325.25,21.88Z"/><path class="cls-2" d="M342.22,15.75v10H338V24.08a6.83,6.83,0,0,1-5.11,2c-3.66,0-5.79-2.17-5.79-5,0-3,2.47-4.87,6.33-4.87h4.2v-.75c0-1.83-1-3-3.12-3-1.79,0-3,.85-4.43,2.31L327.72,12A9.1,9.1,0,0,1,335,8.57C339.31,8.57,342.22,11,342.22,15.75Zm-4.57,3.69v-.2h-3.59c-1.49,0-2.34.58-2.34,1.69s1,1.83,2.41,1.83A3.35,3.35,0,0,0,337.65,19.44Z"/><path class="cls-2" d="M346.36.3h4.57V25.71h-4.57Z"/><polygon points="44.07 12.82 44.07 38.27 66.11 25.55 66.11 0.1 44.07 12.82"/><polygon class="cls-2" points="22.04 12.82 22.04 38.27 44.07 25.55 44.07 0.1 22.04 12.82"/><polygon class="cls-3" points="0 12.82 0 38.27 22.04 25.55 22.04 0.1 0 12.82"/></g></g></svg>