<svg xmlns="http://www.w3.org/2000/svg" viewBox="0 0 191.44 331.6"><defs><style>.cls-1{fill:none;}.cls-2{fill:#fff;}.cls-3{fill:#797574;}.cls-4{fill:#ffb500;}</style></defs><g id="Layer_2" data-name="Layer 2"><g id="Layer_1-2" data-name="Layer 1"><polygon class="cls-1" points="127.62 331.6 127.62 331.6 127.62 331.6 127.62 331.6"/><polygon class="cls-1" points="0 331.6 0 331.6 0 331.6 0 331.6"/><polygon class="cls-1" points="191.44 331.6 191.44 331.6 191.44 331.6 191.44 331.6"/><polygon class="cls-1" points="63.81 331.6 63.81 331.6 63.81 331.6 63.81 331.6"/><polygon class="cls-2" points="127.62 257.92 159.53 276.34 159.53 239.5 127.62 257.92"/><polygon points="159.53 276.34 191.44 257.92 191.44 221.07 159.53 239.5 159.53 276.34"/><polygon class="cls-3" points="95.72 276.34 95.72 313.18 127.62 331.6 127.62 294.76 95.72 276.34"/><polygon class="cls-4" points="95.72 276.34 127.62 294.76 159.53 276.34 127.62 257.92 95.72 276.34"/><polygon points="127.62 331.6 159.53 313.18 159.53 276.34 127.62 294.76 127.62 331.6"/><polygon class="cls-3" points="159.53 313.18 191.44 331.6 191.44 294.76 159.53 276.34 159.53 313.18"/><polygon class="cls-3" points="159.53 276.34 191.44 294.76 191.44 257.92 159.53 276.34"/><polygon class="cls-3" points="95.72 313.18 95.72 331.6 127.62 331.6 127.62 331.6 95.72 313.18"/><polygon class="cls-2" points="127.62 331.6 127.62 331.6 191.44 331.6 191.44 331.6 159.53 313.18 127.62 331.6"/><polygon class="cls-2" points="31.91 239.5 0 221.07 0 257.92 31.91 276.34 31.91 239.5"/><polygon points="31.91 239.5 31.91 276.34 63.81 257.92 31.91 239.5"/><polygon class="cls-3" points="63.85 331.58 63.81 331.6 63.81 331.6 63.9 331.6 63.85 331.58"/><polygon class="cls-3" points="63.9 331.6 95.72 331.6 95.72 313.18 63.85 331.58 63.9 331.6"/><polygon class="cls-3" points="0 257.92 0 294.76 31.91 276.34 0 257.92"/><polygon class="cls-2" points="31.91 276.34 0 294.76 0 331.6 31.91 313.18 31.91 276.34"/><polygon class="cls-3" points="63.81 294.76 31.91 276.34 31.91 313.18 63.81 331.6 63.81 331.55 63.81 294.76"/><polygon class="cls-2" points="95.72 276.34 63.81 257.92 31.91 276.34 63.81 294.76 95.72 276.34"/><polygon class="cls-2" points="63.81 294.76 63.81 331.55 63.81 331.6 63.85 331.58 95.72 313.18 95.72 276.34 63.81 294.76"/><polygon class="cls-4" points="31.91 313.18 0 331.6 0 331.6 63.81 331.6 63.81 331.6 31.91 313.18"/><polygon class="cls-1" points="159.53 202.65 191.44 221.07 191.44 221.03 159.53 202.6 159.53 202.65"/><polygon class="cls-2" points="31.91 92.13 63.81 110.55 63.81 73.71 31.91 92.13"/><polygon points="95.72 55.29 63.81 73.71 63.81 110.55 95.72 92.13 95.72 55.29"/><polygon class="cls-2" points="127.62 110.55 127.62 73.71 95.72 55.29 95.72 92.13 127.62 110.55"/><polygon points="127.62 110.55 159.53 92.13 127.62 73.71 127.62 110.55"/><polygon class="cls-3" points="31.91 128.97 0 110.55 0 147.39 31.91 165.81 31.91 128.97"/><polygon class="cls-4" points="63.81 110.55 31.91 92.13 0 110.55 31.91 128.97 63.81 110.55"/><polygon points="63.81 110.55 31.91 128.97 31.91 165.81 63.81 147.39 63.81 110.55"/><polygon class="cls-3" points="159.53 165.81 159.53 202.6 191.44 221.03 191.44 184.18 159.57 165.79 159.53 165.81"/><polygon class="cls-3" points="191.44 184.18 191.44 147.39 159.57 165.79 191.44 184.18"/><polygon class="cls-3" points="95.72 165.81 95.72 128.97 63.81 110.55 63.81 147.39 95.72 165.81"/><polygon class="cls-3" points="127.62 110.55 95.72 92.13 63.81 110.55 95.72 128.97 127.62 110.55"/><polygon class="cls-2" points="95.72 165.81 127.62 147.39 127.62 110.55 95.72 128.97 95.72 165.81"/><polygon class="cls-3" points="159.53 165.81 159.53 165.76 159.53 128.97 127.62 110.55 127.62 147.39 159.53 165.81"/><polygon class="cls-2" points="127.62 110.55 159.53 128.97 191.44 110.55 159.53 92.13 127.62 110.55"/><polygon class="cls-2" points="159.53 165.76 159.53 165.81 159.57 165.79 191.44 147.39 191.44 110.55 159.53 128.97 159.53 165.76"/><polygon class="cls-3" points="0 147.39 0 184.23 31.91 165.81 0 147.39"/><polygon class="cls-2" points="31.91 165.81 0 184.23 0 221.07 31.91 202.65 31.91 165.81"/><polygon class="cls-3" points="31.91 165.81 31.91 202.65 63.81 221.07 63.81 184.23 31.91 165.81"/><polygon class="cls-2" points="95.72 165.81 63.81 147.39 31.91 165.81 63.81 184.23 95.72 165.81"/><polygon class="cls-3" points="95.72 165.81 63.81 184.23 63.81 221.07 95.72 202.65 95.72 165.81"/><polygon class="cls-2" points="95.72 165.81 95.72 202.65 127.62 221.07 127.62 184.23 95.72 165.81"/><polygon class="cls-4" points="95.72 165.81 127.62 184.23 159.53 165.81 127.62 147.39 95.72 165.81"/><polygon class="cls-2" points="127.62 221.07 159.53 202.65 159.53 202.6 159.53 165.81 127.62 184.23 127.62 221.07"/><polygon class="cls-2" points="159.53 239.5 127.62 221.07 127.62 257.92 159.53 239.5"/><polygon class="cls-2" points="159.53 239.5 159.53 239.5 127.62 257.92 159.53 239.5"/><polygon class="cls-3" points="127.62 221.07 159.53 239.5 191.44 221.07 159.53 202.65 127.62 221.07"/><polygon points="159.53 239.5 191.44 221.07 159.53 239.5 159.53 239.5"/><polygon class="cls-3" points="31.91 239.5 0 221.07 31.91 239.5 31.91 239.5"/><polygon class="cls-3" points="63.81 221.07 31.91 202.65 0 221.07 31.91 239.5 63.81 221.07"/><polygon points="63.81 221.07 31.91 239.5 63.81 257.92 63.81 221.07"/><polygon points="31.91 239.5 31.91 239.5 63.81 257.92 31.91 239.5"/><polygon class="cls-3" points="95.72 276.34 95.72 239.5 63.81 221.07 63.81 257.92 95.72 276.34"/><polygon class="cls-3" points="63.81 257.92 95.72 276.34 95.72 276.34 63.81 257.92"/><polygon class="cls-4" points="127.62 221.07 95.72 202.65 63.81 221.07 95.72 239.5 127.62 221.07"/><polygon points="95.72 276.34 127.62 257.92 127.62 221.07 95.72 239.5 95.72 276.34"/><polygon points="95.72 276.34 127.62 257.92 95.72 276.34 95.72 276.34"/><polygon class="cls-3" points="95.72 18.4 95.72 18.45 127.62 0.02 95.72 0.02 95.72 18.4"/><polygon class="cls-2" points="95.72 55.24 95.72 55.29 127.62 36.87 127.62 0.02 95.72 18.45 95.72 55.24"/><polygon class="cls-3" points="159.53 55.29 159.53 18.45 127.62 0.02 127.62 36.87 159.53 55.29"/><polygon class="cls-2" points="191.44 0.02 127.62 0.02 159.53 18.45 191.44 0.02"/><polygon class="cls-3" points="159.53 55.29 191.44 36.87 191.44 0.02 159.53 18.45 159.53 55.29"/><polygon class="cls-3" points="127.62 73.71 95.72 55.29 127.62 73.71 127.62 73.71"/><polygon class="cls-3" points="159.53 55.29 127.62 36.87 95.72 55.29 127.62 73.71 159.53 55.29"/><polygon points="159.53 92.13 159.53 55.29 127.62 73.71 159.53 92.13"/><polygon points="127.62 73.71 159.53 92.13 127.62 73.71 127.62 73.71"/><polygon class="cls-3" points="159.53 92.13 191.44 110.55 191.44 73.71 159.53 55.29 159.53 92.13"/><polygon class="cls-3" points="191.44 110.55 191.44 110.55 159.53 92.13 191.44 110.55"/><polygon class="cls-4" points="191.44 73.71 191.44 36.87 159.53 55.29 191.44 73.71"/><polygon class="cls-1" points="95.72 55.24 63.81 36.82 63.81 36.87 95.72 55.29 95.72 55.24"/><polygon class="cls-3" points="63.85 0 63.81 0.02 63.9 0.02 63.85 0"/><polygon class="cls-3" points="95.72 55.24 95.72 18.45 95.72 18.4 63.9 0.02 63.81 0.02 63.81 36.82 95.72 55.24"/><polygon class="cls-3" points="63.9 0.02 95.72 18.4 95.72 0.02 63.9 0.02"/><polygon class="cls-2" points="31.91 18.45 0 0.02 0 36.87 31.91 55.29 31.91 18.45"/><polygon class="cls-4" points="63.81 0.02 0 0.02 31.91 18.45 63.81 0.02"/><polygon class="cls-2" points="31.91 55.29 63.81 36.87 63.81 36.82 63.81 0.02 31.91 18.45 31.91 55.29"/><polygon class="cls-2" points="31.91 55.29 31.91 92.13 63.81 73.71 31.91 55.29"/><polygon class="cls-2" points="63.81 73.71 31.91 92.13 63.81 73.71 63.81 73.71"/><polygon class="cls-3" points="95.72 55.29 63.81 36.87 31.91 55.29 63.81 73.71 95.72 55.29"/><polygon points="63.81 73.71 95.72 55.29 63.81 73.71 63.81 73.71"/><polygon class="cls-4" points="0 36.87 0 73.71 31.91 55.29 0 36.87"/><polygon points="31.91 55.29 0 73.71 0 110.55 31.91 92.13 31.91 55.29"/><polygon points="0 110.55 0 110.55 31.91 92.13 0 110.55"/></g></g></svg>